<svg width="191" height="191" viewBox="0 0 191 191" fill="none" xmlns="http://www.w3.org/2000/svg">
<g opacity="0.3">
<mask id="mask0_331_8" style="mask-type:alpha" maskUnits="userSpaceOnUse" x="0" y="0" width="191" height="191">
<path d="M109.214 58C109.214 59.3807 108.098 60.5 106.721 60.5C105.344 60.5 104.227 59.3807 104.227 58C104.227 56.6193 105.344 55.5 106.721 55.5C108.098 55.5 109.214 56.6193 109.214 58Z" fill="black"/>
<path d="M50.3681 58C50.3681 59.3807 49.2518 60.5 47.8747 60.5C46.4976 60.5 45.3812 59.3807 45.3812 58C45.3812 56.6193 46.4976 55.5 47.8747 55.5C49.2518 55.5 50.3681 56.6193 50.3681 58Z" fill="black"/>
<path d="M65.329 58C65.329 59.3807 64.2126 60.5 62.8355 60.5C61.4584 60.5 60.342 59.3807 60.342 58C60.342 56.6193 61.4584 55.5 62.8355 55.5C64.2126 55.5 65.329 56.6193 65.329 58Z" fill="black"/>
<path d="M80.2898 58C80.2898 59.3807 79.1735 60.5 77.7963 60.5C76.4192 60.5 75.3029 59.3807 75.3029 58C75.3029 56.6193 76.4192 55.5 77.7963 55.5C79.1735 55.5 80.2898 56.6193 80.2898 58Z" fill="black"/>
<path d="M95.2507 58C95.2507 59.3807 94.1343 60.5 92.7572 60.5C91.3801 60.5 90.2637 59.3807 90.2637 58C90.2637 56.6193 91.3801 55.5 92.7572 55.5C94.1343 55.5 95.2507 56.6193 95.2507 58Z" fill="black"/>
<path d="M123.178 58C123.178 59.3807 122.061 60.5 120.684 60.5C119.307 60.5 118.191 59.3807 118.191 58C118.191 56.6193 119.307 55.5 120.684 55.5C122.061 55.5 123.178 56.6193 123.178 58Z" fill="black"/>
<path d="M109.214 73C109.214 74.3807 108.098 75.5 106.721 75.5C105.344 75.5 104.227 74.3807 104.227 73C104.227 71.6193 105.344 70.5 106.721 70.5C108.098 70.5 109.214 71.6193 109.214 73Z" fill="black"/>
<path d="M50.3681 73C50.3681 74.3807 49.2518 75.5 47.8747 75.5C46.4976 75.5 45.3812 74.3807 45.3812 73C45.3812 71.6193 46.4976 70.5 47.8747 70.5C49.2518 70.5 50.3681 71.6193 50.3681 73Z" fill="black"/>
<path d="M65.329 73C65.329 74.3807 64.2126 75.5 62.8355 75.5C61.4584 75.5 60.342 74.3807 60.342 73C60.342 71.6193 61.4584 70.5 62.8355 70.5C64.2126 70.5 65.329 71.6193 65.329 73Z" fill="black"/>
<path d="M80.2898 73C80.2898 74.3807 79.1735 75.5 77.7963 75.5C76.4192 75.5 75.3029 74.3807 75.3029 73C75.3029 71.6193 76.4192 70.5 77.7963 70.5C79.1735 70.5 80.2898 71.6193 80.2898 73Z" fill="black"/>
<path d="M95.2507 73C95.2507 74.3807 94.1343 75.5 92.7572 75.5C91.3801 75.5 90.2637 74.3807 90.2637 73C90.2637 71.6193 91.3801 70.5 92.7572 70.5C94.1343 70.5 95.2507 71.6193 95.2507 73Z" fill="black"/>
<path d="M123.178 73C123.178 74.3807 122.061 75.5 120.684 75.5C119.307 75.5 118.191 74.3807 118.191 73C118.191 71.6193 119.307 70.5 120.684 70.5C122.061 70.5 123.178 71.6193 123.178 73Z" fill="black"/>
<path d="M109.214 88C109.214 89.3807 108.098 90.5 106.721 90.5C105.344 90.5 104.227 89.3807 104.227 88C104.227 86.6193 105.344 85.5 106.721 85.5C108.098 85.5 109.214 86.6193 109.214 88Z" fill="black"/>
<path d="M50.3681 88C50.3681 89.3807 49.2518 90.5 47.8747 90.5C46.4976 90.5 45.3812 89.3807 45.3812 88C45.3812 86.6193 46.4976 85.5 47.8747 85.5C49.2518 85.5 50.3681 86.6193 50.3681 88Z" fill="black"/>
<path d="M65.329 88C65.329 89.3807 64.2126 90.5 62.8355 90.5C61.4584 90.5 60.342 89.3807 60.342 88C60.342 86.6193 61.4584 85.5 62.8355 85.5C64.2126 85.5 65.329 86.6193 65.329 88Z" fill="black"/>
<path d="M80.2898 88C80.2898 89.3807 79.1735 90.5 77.7963 90.5C76.4192 90.5 75.3029 89.3807 75.3029 88C75.3029 86.6193 76.4192 85.5 77.7963 85.5C79.1735 85.5 80.2898 86.6193 80.2898 88Z" fill="black"/>
<path d="M95.2507 88C95.2507 89.3807 94.1343 90.5 92.7572 90.5C91.3801 90.5 90.2637 89.3807 90.2637 88C90.2637 86.6193 91.3801 85.5 92.7572 85.5C94.1343 85.5 95.2507 86.6193 95.2507 88Z" fill="black"/>
<path d="M123.178 88C123.178 89.3807 122.061 90.5 120.684 90.5C119.307 90.5 118.191 89.3807 118.191 88C118.191 86.6193 119.307 85.5 120.684 85.5C122.061 85.5 123.178 86.6193 123.178 88Z" fill="black"/>
<path d="M109.214 103C109.214 104.381 108.098 105.5 106.721 105.5C105.344 105.5 104.227 104.381 104.227 103C104.227 101.619 105.344 100.5 106.721 100.5C108.098 100.5 109.214 101.619 109.214 103Z" fill="black"/>
<path d="M50.3681 103C50.3681 104.381 49.2518 105.5 47.8747 105.5C46.4976 105.5 45.3812 104.381 45.3812 103C45.3812 101.619 46.4976 100.5 47.8747 100.5C49.2518 100.5 50.3681 101.619 50.3681 103Z" fill="black"/>
<path d="M65.329 103C65.329 104.381 64.2126 105.5 62.8355 105.5C61.4584 105.5 60.342 104.381 60.342 103C60.342 101.619 61.4584 100.5 62.8355 100.5C64.2126 100.5 65.329 101.619 65.329 103Z" fill="black"/>
<path d="M80.2898 103C80.2898 104.381 79.1735 105.5 77.7963 105.5C76.4192 105.5 75.3029 104.381 75.3029 103C75.3029 101.619 76.4192 100.5 77.7963 100.5C79.1735 100.5 80.2898 101.619 80.2898 103Z" fill="black"/>
<path d="M95.2507 103C95.2507 104.381 94.1343 105.5 92.7572 105.5C91.3801 105.5 90.2637 104.381 90.2637 103C90.2637 101.619 91.3801 100.5 92.7572 100.5C94.1343 100.5 95.2507 101.619 95.2507 103Z" fill="black"/>
<path d="M123.178 103C123.178 104.381 122.061 105.5 120.684 105.5C119.307 105.5 118.191 104.381 118.191 103C118.191 101.619 119.307 100.5 120.684 100.5C122.061 100.5 123.178 101.619 123.178 103Z" fill="black"/>
<path d="M109.214 118C109.214 119.381 108.098 120.5 106.721 120.5C105.344 120.5 104.227 119.381 104.227 118C104.227 116.619 105.344 115.5 106.721 115.5C108.098 115.5 109.214 116.619 109.214 118Z" fill="black"/>
<path d="M50.3681 118C50.3681 119.381 49.2518 120.5 47.8747 120.5C46.4976 120.5 45.3812 119.381 45.3812 118C45.3812 116.619 46.4976 115.5 47.8747 115.5C49.2518 115.5 50.3681 116.619 50.3681 118Z" fill="black"/>
<path d="M65.329 118C65.329 119.381 64.2126 120.5 62.8355 120.5C61.4584 120.5 60.342 119.381 60.342 118C60.342 116.619 61.4584 115.5 62.8355 115.5C64.2126 115.5 65.329 116.619 65.329 118Z" fill="black"/>
<path d="M80.2898 118C80.2898 119.381 79.1735 120.5 77.7963 120.5C76.4192 120.5 75.3029 119.381 75.3029 118C75.3029 116.619 76.4192 115.5 77.7963 115.5C79.1735 115.5 80.2898 116.619 80.2898 118Z" fill="black"/>
<path d="M95.2507 118C95.2507 119.381 94.1343 120.5 92.7572 120.5C91.3801 120.5 90.2637 119.381 90.2637 118C90.2637 116.619 91.3801 115.5 92.7572 115.5C94.1343 115.5 95.2507 116.619 95.2507 118Z" fill="black"/>
<path d="M123.178 118C123.178 119.381 122.061 120.5 120.684 120.5C119.307 120.5 118.191 119.381 118.191 118C118.191 116.619 119.307 115.5 120.684 115.5C122.061 115.5 123.178 116.619 123.178 118Z" fill="black"/>
<path d="M109.214 133C109.214 134.381 108.098 135.5 106.721 135.5C105.344 135.5 104.227 134.381 104.227 133C104.227 131.619 105.344 130.5 106.721 130.5C108.098 130.5 109.214 131.619 109.214 133Z" fill="black"/>
<path d="M50.3681 133C50.3681 134.381 49.2518 135.5 47.8747 135.5C46.4976 135.5 45.3812 134.381 45.3812 133C45.3812 131.619 46.4976 130.5 47.8747 130.5C49.2518 130.5 50.3681 131.619 50.3681 133Z" fill="black"/>
<path d="M65.329 133C65.329 134.381 64.2126 135.5 62.8355 135.5C61.4584 135.5 60.342 134.381 60.342 133C60.342 131.619 61.4584 130.5 62.8355 130.5C64.2126 130.5 65.329 131.619 65.329 133Z" fill="black"/>
<path d="M80.2898 133C80.2898 134.381 79.1735 135.5 77.7963 135.5C76.4192 135.5 75.3029 134.381 75.3029 133C75.3029 131.619 76.4192 130.5 77.7963 130.5C79.1735 130.5 80.2898 131.619 80.2898 133Z" fill="black"/>
<path d="M95.2507 133C95.2507 134.381 94.1343 135.5 92.7572 135.5C91.3801 135.5 90.2637 134.381 90.2637 133C90.2637 131.619 91.3801 130.5 92.7572 130.5C94.1343 130.5 95.2507 131.619 95.2507 133Z" fill="black"/>
<path d="M123.178 133C123.178 134.381 122.061 135.5 120.684 135.5C119.307 135.5 118.191 134.381 118.191 133C118.191 131.619 119.307 130.5 120.684 130.5C122.061 130.5 123.178 131.619 123.178 133Z" fill="black"/>
<path d="M138.138 58C138.138 59.3807 137.022 60.5 135.645 60.5C134.268 60.5 133.151 59.3807 133.151 58C133.151 56.6193 134.268 55.5 135.645 55.5C137.022 55.5 138.138 56.6193 138.138 58Z" fill="black"/>
<path d="M138.138 73C138.138 74.3807 137.022 75.5 135.645 75.5C134.268 75.5 133.151 74.3807 133.151 73C133.151 71.6193 134.268 70.5 135.645 70.5C137.022 70.5 138.138 71.6193 138.138 73Z" fill="black"/>
<path d="M138.138 88C138.138 89.3807 137.022 90.5 135.645 90.5C134.268 90.5 133.151 89.3807 133.151 88C133.151 86.6193 134.268 85.5 135.645 85.5C137.022 85.5 138.138 86.6193 138.138 88Z" fill="black"/>
<path d="M138.138 103C138.138 104.381 137.022 105.5 135.645 105.5C134.268 105.5 133.151 104.381 133.151 103C133.151 101.619 134.268 100.5 135.645 100.5C137.022 100.5 138.138 101.619 138.138 103Z" fill="black"/>
<path d="M138.138 118C138.138 119.381 137.022 120.5 135.645 120.5C134.268 120.5 133.151 119.381 133.151 118C133.151 116.619 134.268 115.5 135.645 115.5C137.022 115.5 138.138 116.619 138.138 118Z" fill="black"/>
<path d="M138.138 133C138.138 134.381 137.022 135.5 135.645 135.5C134.268 135.5 133.151 134.381 133.151 133C133.151 131.619 134.268 130.5 135.645 130.5C137.022 130.5 138.138 131.619 138.138 133Z" fill="black"/>
<path d="M153.099 58C153.099 59.3807 151.983 60.5 150.606 60.5C149.229 60.5 148.112 59.3807 148.112 58C148.112 56.6193 149.229 55.5 150.606 55.5C151.983 55.5 153.099 56.6193 153.099 58Z" fill="black"/>
<path d="M153.099 73C153.099 74.3807 151.983 75.5 150.606 75.5C149.229 75.5 148.112 74.3807 148.112 73C148.112 71.6193 149.229 70.5 150.606 70.5C151.983 70.5 153.099 71.6193 153.099 73Z" fill="black"/>
<path d="M153.099 88C153.099 89.3807 151.983 90.5 150.606 90.5C149.229 90.5 148.112 89.3807 148.112 88C148.112 86.6193 149.229 85.5 150.606 85.5C151.983 85.5 153.099 86.6193 153.099 88Z" fill="black"/>
<path d="M153.099 103C153.099 104.381 151.983 105.5 150.606 105.5C149.229 105.5 148.112 104.381 148.112 103C148.112 101.619 149.229 100.5 150.606 100.5C151.983 100.5 153.099 101.619 153.099 103Z" fill="black"/>
<path d="M153.099 118C153.099 119.381 151.983 120.5 150.606 120.5C149.229 120.5 148.112 119.381 148.112 118C148.112 116.619 149.229 115.5 150.606 115.5C151.983 115.5 153.099 116.619 153.099 118Z" fill="black"/>
<path d="M153.099 133C153.099 134.381 151.983 135.5 150.606 135.5C149.229 135.5 148.112 134.381 148.112 133C148.112 131.619 149.229 130.5 150.606 130.5C151.983 130.5 153.099 131.619 153.099 133Z" fill="black"/>
<path d="M167.063 58C167.063 59.3807 165.946 60.5 164.569 60.5C163.192 60.5 162.076 59.3807 162.076 58C162.076 56.6193 163.192 55.5 164.569 55.5C165.946 55.5 167.063 56.6193 167.063 58Z" fill="black"/>
<path d="M167.063 73C167.063 74.3807 165.946 75.5 164.569 75.5C163.192 75.5 162.076 74.3807 162.076 73C162.076 71.6193 163.192 70.5 164.569 70.5C165.946 70.5 167.063 71.6193 167.063 73Z" fill="black"/>
<path d="M167.063 88C167.063 89.3807 165.946 90.5 164.569 90.5C163.192 90.5 162.076 89.3807 162.076 88C162.076 86.6193 163.192 85.5 164.569 85.5C165.946 85.5 167.063 86.6193 167.063 88Z" fill="black"/>
<path d="M167.063 103C167.063 104.381 165.946 105.5 164.569 105.5C163.192 105.5 162.076 104.381 162.076 103C162.076 101.619 163.192 100.5 164.569 100.5C165.946 100.5 167.063 101.619 167.063 103Z" fill="black"/>
<path d="M167.063 118C167.063 119.381 165.946 120.5 164.569 120.5C163.192 120.5 162.076 119.381 162.076 118C162.076 116.619 163.192 115.5 164.569 115.5C165.946 115.5 167.063 116.619 167.063 118Z" fill="black"/>
<path d="M167.063 133C167.063 134.381 165.946 135.5 164.569 135.5C163.192 135.5 162.076 134.381 162.076 133C162.076 131.619 163.192 130.5 164.569 130.5C165.946 130.5 167.063 131.619 167.063 133Z" fill="black"/>
<path d="M34.9086 58C34.9086 59.3807 33.7923 60.5 32.4151 60.5C31.038 60.5 29.9217 59.3807 29.9217 58C29.9217 56.6193 31.038 55.5 32.4151 55.5C33.7923 55.5 34.9086 56.6193 34.9086 58Z" fill="black"/>
<path d="M34.9086 73C34.9086 74.3807 33.7923 75.5 32.4151 75.5C31.038 75.5 29.9217 74.3807 29.9217 73C29.9217 71.6193 31.038 70.5 32.4151 70.5C33.7923 70.5 34.9086 71.6193 34.9086 73Z" fill="black"/>
<path d="M34.9086 88C34.9086 89.3807 33.7923 90.5 32.4151 90.5C31.038 90.5 29.9217 89.3807 29.9217 88C29.9217 86.6193 31.038 85.5 32.4151 85.5C33.7923 85.5 34.9086 86.6193 34.9086 88Z" fill="black"/>
<path d="M34.9086 103C34.9086 104.381 33.7923 105.5 32.4151 105.5C31.038 105.5 29.9217 104.381 29.9217 103C29.9217 101.619 31.038 100.5 32.4151 100.5C33.7923 100.5 34.9086 101.619 34.9086 103Z" fill="black"/>
<path d="M34.9086 118C34.9086 119.381 33.7923 120.5 32.4151 120.5C31.038 120.5 29.9217 119.381 29.9217 118C29.9217 116.619 31.038 115.5 32.4151 115.5C33.7923 115.5 34.9086 116.619 34.9086 118Z" fill="black"/>
<path d="M34.9086 133C34.9086 134.381 33.7923 135.5 32.4151 135.5C31.038 135.5 29.9217 134.381 29.9217 133C29.9217 131.619 31.038 130.5 32.4151 130.5C33.7923 130.5 34.9086 131.619 34.9086 133Z" fill="black"/>
<path d="M19.9478 58C19.9478 59.3807 18.8314 60.5 17.4543 60.5C16.0772 60.5 14.9608 59.3807 14.9608 58C14.9608 56.6193 16.0772 55.5 17.4543 55.5C18.8314 55.5 19.9478 56.6193 19.9478 58Z" fill="black"/>
<path d="M19.9478 73C19.9478 74.3807 18.8314 75.5 17.4543 75.5C16.0772 75.5 14.9608 74.3807 14.9608 73C14.9608 71.6193 16.0772 70.5 17.4543 70.5C18.8314 70.5 19.9478 71.6193 19.9478 73Z" fill="black"/>
<path d="M19.9478 88C19.9478 89.3807 18.8314 90.5 17.4543 90.5C16.0772 90.5 14.9608 89.3807 14.9608 88C14.9608 86.6193 16.0772 85.5 17.4543 85.5C18.8314 85.5 19.9478 86.6193 19.9478 88Z" fill="black"/>
<path d="M19.9478 103C19.9478 104.381 18.8314 105.5 17.4543 105.5C16.0772 105.5 14.9608 104.381 14.9608 103C14.9608 101.619 16.0772 100.5 17.4543 100.5C18.8314 100.5 19.9478 101.619 19.9478 103Z" fill="black"/>
<path d="M19.9478 118C19.9478 119.381 18.8314 120.5 17.4543 120.5C16.0772 120.5 14.9608 119.381 14.9608 118C14.9608 116.619 16.0772 115.5 17.4543 115.5C18.8314 115.5 19.9478 116.619 19.9478 118Z" fill="black"/>
<path d="M19.9478 133C19.9478 134.381 18.8314 135.5 17.4543 135.5C16.0772 135.5 14.9608 134.381 14.9608 133C14.9608 131.619 16.0772 130.5 17.4543 130.5C18.8314 130.5 19.9478 131.619 19.9478 133Z" fill="black"/>
<path d="M4.98695 58C4.98695 59.3807 3.87058 60.5 2.49347 60.5C1.11637 60.5 0 59.3807 0 58C0 56.6193 1.11637 55.5 2.49347 55.5C3.87058 55.5 4.98695 56.6193 4.98695 58Z" fill="black"/>
<path d="M4.98695 73C4.98695 74.3807 3.87058 75.5 2.49347 75.5C1.11637 75.5 0 74.3807 0 73C0 71.6193 1.11637 70.5 2.49347 70.5C3.87058 70.5 4.98695 71.6193 4.98695 73Z" fill="black"/>
<path d="M4.98695 88C4.98695 89.3807 3.87058 90.5 2.49347 90.5C1.11637 90.5 0 89.3807 0 88C0 86.6193 1.11637 85.5 2.49347 85.5C3.87058 85.5 4.98695 86.6193 4.98695 88Z" fill="black"/>
<path d="M4.98695 103C4.98695 104.381 3.87058 105.5 2.49347 105.5C1.11637 105.5 0 104.381 0 103C0 101.619 1.11637 100.5 2.49347 100.5C3.87058 100.5 4.98695 101.619 4.98695 103Z" fill="black"/>
<path d="M4.98695 118C4.98695 119.381 3.87058 120.5 2.49347 120.5C1.11637 120.5 0 119.381 0 118C0 116.619 1.11637 115.5 2.49347 115.5C3.87058 115.5 4.98695 116.619 4.98695 118Z" fill="black"/>
<path d="M4.98695 133C4.98695 134.381 3.87058 135.5 2.49347 135.5C1.11637 135.5 0 134.381 0 133C0 131.619 1.11637 130.5 2.49347 130.5C3.87058 130.5 4.98695 131.619 4.98695 133Z" fill="black"/>
<path d="M109.214 44C109.214 45.3807 108.098 46.5 106.721 46.5C105.344 46.5 104.227 45.3807 104.227 44C104.227 42.6193 105.344 41.5 106.721 41.5C108.098 41.5 109.214 42.6193 109.214 44Z" fill="black"/>
<path d="M50.3681 44C50.3681 45.3807 49.2518 46.5 47.8747 46.5C46.4976 46.5 45.3812 45.3807 45.3812 44C45.3812 42.6193 46.4976 41.5 47.8747 41.5C49.2518 41.5 50.3681 42.6193 50.3681 44Z" fill="black"/>
<path d="M65.329 44C65.329 45.3807 64.2126 46.5 62.8355 46.5C61.4584 46.5 60.342 45.3807 60.342 44C60.342 42.6193 61.4584 41.5 62.8355 41.5C64.2126 41.5 65.329 42.6193 65.329 44Z" fill="black"/>
<path d="M80.2898 44C80.2898 45.3807 79.1735 46.5 77.7963 46.5C76.4192 46.5 75.3029 45.3807 75.3029 44C75.3029 42.6193 76.4192 41.5 77.7963 41.5C79.1735 41.5 80.2898 42.6193 80.2898 44Z" fill="black"/>
<path d="M95.2507 44C95.2507 45.3807 94.1343 46.5 92.7572 46.5C91.3801 46.5 90.2637 45.3807 90.2637 44C90.2637 42.6193 91.3801 41.5 92.7572 41.5C94.1343 41.5 95.2507 42.6193 95.2507 44Z" fill="black"/>
<path d="M123.178 44C123.178 45.3807 122.061 46.5 120.684 46.5C119.307 46.5 118.191 45.3807 118.191 44C118.191 42.6193 119.307 41.5 120.684 41.5C122.061 41.5 123.178 42.6193 123.178 44Z" fill="black"/>
<path d="M138.138 44C138.138 45.3807 137.022 46.5 135.645 46.5C134.268 46.5 133.151 45.3807 133.151 44C133.151 42.6193 134.268 41.5 135.645 41.5C137.022 41.5 138.138 42.6193 138.138 44Z" fill="black"/>
<path d="M153.099 44C153.099 45.3807 151.983 46.5 150.606 46.5C149.229 46.5 148.112 45.3807 148.112 44C148.112 42.6193 149.229 41.5 150.606 41.5C151.983 41.5 153.099 42.6193 153.099 44Z" fill="black"/>
<path d="M167.063 44C167.063 45.3807 165.946 46.5 164.569 46.5C163.192 46.5 162.076 45.3807 162.076 44C162.076 42.6193 163.192 41.5 164.569 41.5C165.946 41.5 167.063 42.6193 167.063 44Z" fill="black"/>
<path d="M34.9086 44C34.9086 45.3807 33.7923 46.5 32.4151 46.5C31.038 46.5 29.9217 45.3807 29.9217 44C29.9217 42.6193 31.038 41.5 32.4151 41.5C33.7923 41.5 34.9086 42.6193 34.9086 44Z" fill="black"/>
<path d="M19.9478 44C19.9478 45.3807 18.8314 46.5 17.4543 46.5C16.0772 46.5 14.9608 45.3807 14.9608 44C14.9608 42.6193 16.0772 41.5 17.4543 41.5C18.8314 41.5 19.9478 42.6193 19.9478 44Z" fill="black"/>
<path d="M4.98695 44C4.98695 45.3807 3.87058 46.5 2.49347 46.5C1.11637 46.5 0 45.3807 0 44C0 42.6193 1.11637 41.5 2.49347 41.5C3.87058 41.5 4.98695 42.6193 4.98695 44Z" fill="black"/>
<path d="M109.214 30C109.214 31.3807 108.098 32.5 106.721 32.5C105.344 32.5 104.227 31.3807 104.227 30C104.227 28.6193 105.344 27.5 106.721 27.5C108.098 27.5 109.214 28.6193 109.214 30Z" fill="black"/>
<path d="M50.3681 30C50.3681 31.3807 49.2518 32.5 47.8747 32.5C46.4976 32.5 45.3812 31.3807 45.3812 30C45.3812 28.6193 46.4976 27.5 47.8747 27.5C49.2518 27.5 50.3681 28.6193 50.3681 30Z" fill="black"/>
<path d="M65.329 30C65.329 31.3807 64.2126 32.5 62.8355 32.5C61.4584 32.5 60.342 31.3807 60.342 30C60.342 28.6193 61.4584 27.5 62.8355 27.5C64.2126 27.5 65.329 28.6193 65.329 30Z" fill="black"/>
<path d="M80.2898 30C80.2898 31.3807 79.1735 32.5 77.7963 32.5C76.4192 32.5 75.3029 31.3807 75.3029 30C75.3029 28.6193 76.4192 27.5 77.7963 27.5C79.1735 27.5 80.2898 28.6193 80.2898 30Z" fill="black"/>
<path d="M95.2507 30C95.2507 31.3807 94.1343 32.5 92.7572 32.5C91.3801 32.5 90.2637 31.3807 90.2637 30C90.2637 28.6193 91.3801 27.5 92.7572 27.5C94.1343 27.5 95.2507 28.6193 95.2507 30Z" fill="black"/>
<path d="M123.178 30C123.178 31.3807 122.061 32.5 120.684 32.5C119.307 32.5 118.191 31.3807 118.191 30C118.191 28.6193 119.307 27.5 120.684 27.5C122.061 27.5 123.178 28.6193 123.178 30Z" fill="black"/>
<path d="M138.138 30C138.138 31.3807 137.022 32.5 135.645 32.5C134.268 32.5 133.151 31.3807 133.151 30C133.151 28.6193 134.268 27.5 135.645 27.5C137.022 27.5 138.138 28.6193 138.138 30Z" fill="black"/>
<path d="M153.099 30C153.099 31.3807 151.983 32.5 150.606 32.5C149.229 32.5 148.112 31.3807 148.112 30C148.112 28.6193 149.229 27.5 150.606 27.5C151.983 27.5 153.099 28.6193 153.099 30Z" fill="black"/>
<path d="M167.063 30C167.063 31.3807 165.946 32.5 164.569 32.5C163.192 32.5 162.076 31.3807 162.076 30C162.076 28.6193 163.192 27.5 164.569 27.5C165.946 27.5 167.063 28.6193 167.063 30Z" fill="black"/>
<path d="M34.9086 30C34.9086 31.3807 33.7923 32.5 32.4151 32.5C31.038 32.5 29.9217 31.3807 29.9217 30C29.9217 28.6193 31.038 27.5 32.4151 27.5C33.7923 27.5 34.9086 28.6193 34.9086 30Z" fill="black"/>
<path d="M19.9478 30C19.9478 31.3807 18.8314 32.5 17.4543 32.5C16.0772 32.5 14.9608 31.3807 14.9608 30C14.9608 28.6193 16.0772 27.5 17.4543 27.5C18.8314 27.5 19.9478 28.6193 19.9478 30Z" fill="black"/>
<path d="M4.98695 30C4.98695 31.3807 3.87058 32.5 2.49347 32.5C1.11637 32.5 0 31.3807 0 30C0 28.6193 1.11637 27.5 2.49347 27.5C3.87058 27.5 4.98695 28.6193 4.98695 30Z" fill="black"/>
<path d="M109.214 15.5C109.214 16.8807 108.098 18 106.721 18C105.344 18 104.227 16.8807 104.227 15.5C104.227 14.1193 105.344 13 106.721 13C108.098 13 109.214 14.1193 109.214 15.5Z" fill="black"/>
<path d="M50.3681 15.5C50.3681 16.8807 49.2518 18 47.8747 18C46.4976 18 45.3812 16.8807 45.3812 15.5C45.3812 14.1193 46.4976 13 47.8747 13C49.2518 13 50.3681 14.1193 50.3681 15.5Z" fill="black"/>
<path d="M65.329 15.5C65.329 16.8807 64.2126 18 62.8355 18C61.4584 18 60.342 16.8807 60.342 15.5C60.342 14.1193 61.4584 13 62.8355 13C64.2126 13 65.329 14.1193 65.329 15.5Z" fill="black"/>
<path d="M80.2898 15.5C80.2898 16.8807 79.1735 18 77.7963 18C76.4192 18 75.3029 16.8807 75.3029 15.5C75.3029 14.1193 76.4192 13 77.7963 13C79.1735 13 80.2898 14.1193 80.2898 15.5Z" fill="black"/>
<path d="M95.2507 15.5C95.2507 16.8807 94.1343 18 92.7572 18C91.3801 18 90.2637 16.8807 90.2637 15.5C90.2637 14.1193 91.3801 13 92.7572 13C94.1343 13 95.2507 14.1193 95.2507 15.5Z" fill="black"/>
<path d="M123.178 15.5C123.178 16.8807 122.061 18 120.684 18C119.307 18 118.191 16.8807 118.191 15.5C118.191 14.1193 119.307 13 120.684 13C122.061 13 123.178 14.1193 123.178 15.5Z" fill="black"/>
<path d="M138.138 15.5C138.138 16.8807 137.022 18 135.645 18C134.268 18 133.151 16.8807 133.151 15.5C133.151 14.1193 134.268 13 135.645 13C137.022 13 138.138 14.1193 138.138 15.5Z" fill="black"/>
<path d="M153.099 15.5C153.099 16.8807 151.983 18 150.606 18C149.229 18 148.112 16.8807 148.112 15.5C148.112 14.1193 149.229 13 150.606 13C151.983 13 153.099 14.1193 153.099 15.5Z" fill="black"/>
<path d="M167.063 15.5C167.063 16.8807 165.946 18 164.569 18C163.192 18 162.076 16.8807 162.076 15.5C162.076 14.1193 163.192 13 164.569 13C165.946 13 167.063 14.1193 167.063 15.5Z" fill="black"/>
<path d="M34.9086 15.5C34.9086 16.8807 33.7923 18 32.4151 18C31.038 18 29.9217 16.8807 29.9217 15.5C29.9217 14.1193 31.038 13 32.4151 13C33.7923 13 34.9086 14.1193 34.9086 15.5Z" fill="black"/>
<path d="M19.9478 15.5C19.9478 16.8807 18.8314 18 17.4543 18C16.0772 18 14.9608 16.8807 14.9608 15.5C14.9608 14.1193 16.0772 13 17.4543 13C18.8314 13 19.9478 14.1193 19.9478 15.5Z" fill="black"/>
<path d="M4.98695 15.5C4.98695 16.8807 3.87058 18 2.49347 18C1.11637 18 0 16.8807 0 15.5C0 14.1193 1.11637 13 2.49347 13C3.87058 13 4.98695 14.1193 4.98695 15.5Z" fill="black"/>
<path d="M109.214 2.5C109.214 3.88071 108.098 5 106.721 5C105.344 5 104.227 3.88071 104.227 2.5C104.227 1.11929 105.344 0 106.721 0C108.098 0 109.214 1.11929 109.214 2.5Z" fill="black"/>
<path d="M50.3681 2.5C50.3681 3.88071 49.2518 5 47.8747 5C46.4976 5 45.3812 3.88071 45.3812 2.5C45.3812 1.11929 46.4976 0 47.8747 0C49.2518 0 50.3681 1.11929 50.3681 2.5Z" fill="black"/>
<path d="M65.329 2.5C65.329 3.88071 64.2126 5 62.8355 5C61.4584 5 60.342 3.88071 60.342 2.5C60.342 1.11929 61.4584 0 62.8355 0C64.2126 0 65.329 1.11929 65.329 2.5Z" fill="black"/>
<path d="M80.2898 2.5C80.2898 3.88071 79.1735 5 77.7963 5C76.4192 5 75.3029 3.88071 75.3029 2.5C75.3029 1.11929 76.4192 0 77.7963 0C79.1735 0 80.2898 1.11929 80.2898 2.5Z" fill="black"/>
<path d="M95.2507 2.5C95.2507 3.88071 94.1343 5 92.7572 5C91.3801 5 90.2637 3.88071 90.2637 2.5C90.2637 1.11929 91.3801 0 92.7572 0C94.1343 0 95.2507 1.11929 95.2507 2.5Z" fill="black"/>
<path d="M123.178 2.5C123.178 3.88071 122.061 5 120.684 5C119.307 5 118.191 3.88071 118.191 2.5C118.191 1.11929 119.307 0 120.684 0C122.061 0 123.178 1.11929 123.178 2.5Z" fill="black"/>
<path d="M138.138 2.5C138.138 3.88071 137.022 5 135.645 5C134.268 5 133.151 3.88071 133.151 2.5C133.151 1.11929 134.268 0 135.645 0C137.022 0 138.138 1.11929 138.138 2.5Z" fill="black"/>
<path d="M153.099 2.5C153.099 3.88071 151.983 5 150.606 5C149.229 5 148.112 3.88071 148.112 2.5C148.112 1.11929 149.229 0 150.606 0C151.983 0 153.099 1.11929 153.099 2.5Z" fill="black"/>
<path d="M167.063 2.5C167.063 3.88071 165.946 5 164.569 5C163.192 5 162.076 3.88071 162.076 2.5C162.076 1.11929 163.192 0 164.569 0C165.946 0 167.063 1.11929 167.063 2.5Z" fill="black"/>
<path d="M34.9086 2.5C34.9086 3.88071 33.7923 5 32.4151 5C31.038 5 29.9217 3.88071 29.9217 2.5C29.9217 1.11929 31.038 0 32.4151 0C33.7923 0 34.9086 1.11929 34.9086 2.5Z" fill="black"/>
<path d="M19.9478 2.5C19.9478 3.88071 18.8314 5 17.4543 5C16.0772 5 14.9608 3.88071 14.9608 2.5C14.9608 1.11929 16.0772 0 17.4543 0C18.8314 0 19.9478 1.11929 19.9478 2.5Z" fill="black"/>
<path d="M4.98695 2.5C4.98695 3.88071 3.87058 5 2.49347 5C1.11637 5 0 3.88071 0 2.5C0 1.11929 1.11637 0 2.49347 0C3.87058 0 4.98695 1.11929 4.98695 2.5Z" fill="black"/>
<path d="M109.214 146C109.214 147.381 108.098 148.5 106.721 148.5C105.344 148.5 104.227 147.381 104.227 146C104.227 144.619 105.344 143.5 106.721 143.5C108.098 143.5 109.214 144.619 109.214 146Z" fill="black"/>
<path d="M50.3681 146C50.3681 147.381 49.2518 148.5 47.8747 148.5C46.4976 148.5 45.3812 147.381 45.3812 146C45.3812 144.619 46.4976 143.5 47.8747 143.5C49.2518 143.5 50.3681 144.619 50.3681 146Z" fill="black"/>
<path d="M65.329 146C65.329 147.381 64.2126 148.5 62.8355 148.5C61.4584 148.5 60.342 147.381 60.342 146C60.342 144.619 61.4584 143.5 62.8355 143.5C64.2126 143.5 65.329 144.619 65.329 146Z" fill="black"/>
<path d="M80.2898 146C80.2898 147.381 79.1735 148.5 77.7963 148.5C76.4192 148.5 75.3029 147.381 75.3029 146C75.3029 144.619 76.4192 143.5 77.7963 143.5C79.1735 143.5 80.2898 144.619 80.2898 146Z" fill="black"/>
<path d="M95.2507 146C95.2507 147.381 94.1343 148.5 92.7572 148.5C91.3801 148.5 90.2637 147.381 90.2637 146C90.2637 144.619 91.3801 143.5 92.7572 143.5C94.1343 143.5 95.2507 144.619 95.2507 146Z" fill="black"/>
<path d="M123.178 146C123.178 147.381 122.061 148.5 120.684 148.5C119.307 148.5 118.191 147.381 118.191 146C118.191 144.619 119.307 143.5 120.684 143.5C122.061 143.5 123.178 144.619 123.178 146Z" fill="black"/>
<path d="M138.138 146C138.138 147.381 137.022 148.5 135.645 148.5C134.268 148.5 133.151 147.381 133.151 146C133.151 144.619 134.268 143.5 135.645 143.5C137.022 143.5 138.138 144.619 138.138 146Z" fill="black"/>
<path d="M153.099 146C153.099 147.381 151.983 148.5 150.606 148.5C149.229 148.5 148.112 147.381 148.112 146C148.112 144.619 149.229 143.5 150.606 143.5C151.983 143.5 153.099 144.619 153.099 146Z" fill="black"/>
<path d="M167.063 146C167.063 147.381 165.946 148.5 164.569 148.5C163.192 148.5 162.076 147.381 162.076 146C162.076 144.619 163.192 143.5 164.569 143.5C165.946 143.5 167.063 144.619 167.063 146Z" fill="black"/>
<path d="M34.9086 146C34.9086 147.381 33.7923 148.5 32.4151 148.5C31.038 148.5 29.9217 147.381 29.9217 146C29.9217 144.619 31.038 143.5 32.4151 143.5C33.7923 143.5 34.9086 144.619 34.9086 146Z" fill="black"/>
<path d="M19.9478 146C19.9478 147.381 18.8314 148.5 17.4543 148.5C16.0772 148.5 14.9608 147.381 14.9608 146C14.9608 144.619 16.0772 143.5 17.4543 143.5C18.8314 143.5 19.9478 144.619 19.9478 146Z" fill="black"/>
<path d="M4.98695 146C4.98695 147.381 3.87058 148.5 2.49347 148.5C1.11637 148.5 0 147.381 0 146C0 144.619 1.11637 143.5 2.49347 143.5C3.87058 143.5 4.98695 144.619 4.98695 146Z" fill="black"/>
<path d="M109.214 160.5C109.214 161.881 108.098 163 106.721 163C105.344 163 104.227 161.881 104.227 160.5C104.227 159.119 105.344 158 106.721 158C108.098 158 109.214 159.119 109.214 160.5Z" fill="black"/>
<path d="M50.3681 160.5C50.3681 161.881 49.2518 163 47.8747 163C46.4976 163 45.3812 161.881 45.3812 160.5C45.3812 159.119 46.4976 158 47.8747 158C49.2518 158 50.3681 159.119 50.3681 160.5Z" fill="black"/>
<path d="M65.329 160.5C65.329 161.881 64.2126 163 62.8355 163C61.4584 163 60.342 161.881 60.342 160.5C60.342 159.119 61.4584 158 62.8355 158C64.2126 158 65.329 159.119 65.329 160.5Z" fill="black"/>
<path d="M80.2898 160.5C80.2898 161.881 79.1735 163 77.7963 163C76.4192 163 75.3029 161.881 75.3029 160.5C75.3029 159.119 76.4192 158 77.7963 158C79.1735 158 80.2898 159.119 80.2898 160.5Z" fill="black"/>
<path d="M95.2507 160.5C95.2507 161.881 94.1343 163 92.7572 163C91.3801 163 90.2637 161.881 90.2637 160.5C90.2637 159.119 91.3801 158 92.7572 158C94.1343 158 95.2507 159.119 95.2507 160.5Z" fill="black"/>
<path d="M123.178 160.5C123.178 161.881 122.061 163 120.684 163C119.307 163 118.191 161.881 118.191 160.5C118.191 159.119 119.307 158 120.684 158C122.061 158 123.178 159.119 123.178 160.5Z" fill="black"/>
<path d="M138.138 160.5C138.138 161.881 137.022 163 135.645 163C134.268 163 133.151 161.881 133.151 160.5C133.151 159.119 134.268 158 135.645 158C137.022 158 138.138 159.119 138.138 160.5Z" fill="black"/>
<path d="M153.099 160.5C153.099 161.881 151.983 163 150.606 163C149.229 163 148.112 161.881 148.112 160.5C148.112 159.119 149.229 158 150.606 158C151.983 158 153.099 159.119 153.099 160.5Z" fill="black"/>
<path d="M167.063 160.5C167.063 161.881 165.946 163 164.569 163C163.192 163 162.076 161.881 162.076 160.5C162.076 159.119 163.192 158 164.569 158C165.946 158 167.063 159.119 167.063 160.5Z" fill="black"/>
<path d="M34.9086 160.5C34.9086 161.881 33.7923 163 32.4151 163C31.038 163 29.9217 161.881 29.9217 160.5C29.9217 159.119 31.038 158 32.4151 158C33.7923 158 34.9086 159.119 34.9086 160.5Z" fill="black"/>
<path d="M19.9478 160.5C19.9478 161.881 18.8314 163 17.4543 163C16.0772 163 14.9608 161.881 14.9608 160.5C14.9608 159.119 16.0772 158 17.4543 158C18.8314 158 19.9478 159.119 19.9478 160.5Z" fill="black"/>
<path d="M4.98695 160.5C4.98695 161.881 3.87058 163 2.49347 163C1.11637 163 0 161.881 0 160.5C0 159.119 1.11637 158 2.49347 158C3.87058 158 4.98695 159.119 4.98695 160.5Z" fill="black"/>
<path d="M109.214 175C109.214 176.381 108.098 177.5 106.721 177.5C105.344 177.5 104.227 176.381 104.227 175C104.227 173.619 105.344 172.5 106.721 172.5C108.098 172.5 109.214 173.619 109.214 175Z" fill="black"/>
<path d="M50.3681 175C50.3681 176.381 49.2518 177.5 47.8747 177.5C46.4976 177.5 45.3812 176.381 45.3812 175C45.3812 173.619 46.4976 172.5 47.8747 172.5C49.2518 172.5 50.3681 173.619 50.3681 175Z" fill="black"/>
<path d="M65.329 175C65.329 176.381 64.2126 177.5 62.8355 177.5C61.4584 177.5 60.342 176.381 60.342 175C60.342 173.619 61.4584 172.5 62.8355 172.5C64.2126 172.5 65.329 173.619 65.329 175Z" fill="black"/>
<path d="M80.2898 175C80.2898 176.381 79.1735 177.5 77.7963 177.5C76.4192 177.5 75.3029 176.381 75.3029 175C75.3029 173.619 76.4192 172.5 77.7963 172.5C79.1735 172.5 80.2898 173.619 80.2898 175Z" fill="black"/>
<path d="M95.2507 175C95.2507 176.381 94.1343 177.5 92.7572 177.5C91.3801 177.5 90.2637 176.381 90.2637 175C90.2637 173.619 91.3801 172.5 92.7572 172.5C94.1343 172.5 95.2507 173.619 95.2507 175Z" fill="black"/>
<path d="M123.178 175C123.178 176.381 122.061 177.5 120.684 177.5C119.307 177.5 118.191 176.381 118.191 175C118.191 173.619 119.307 172.5 120.684 172.5C122.061 172.5 123.178 173.619 123.178 175Z" fill="black"/>
<path d="M138.138 175C138.138 176.381 137.022 177.5 135.645 177.5C134.268 177.5 133.151 176.381 133.151 175C133.151 173.619 134.268 172.5 135.645 172.5C137.022 172.5 138.138 173.619 138.138 175Z" fill="black"/>
<path d="M153.099 175C153.099 176.381 151.983 177.5 150.606 177.5C149.229 177.5 148.112 176.381 148.112 175C148.112 173.619 149.229 172.5 150.606 172.5C151.983 172.5 153.099 173.619 153.099 175Z" fill="black"/>
<path d="M167.063 175C167.063 176.381 165.946 177.5 164.569 177.5C163.192 177.5 162.076 176.381 162.076 175C162.076 173.619 163.192 172.5 164.569 172.5C165.946 172.5 167.063 173.619 167.063 175Z" fill="black"/>
<path d="M34.9086 175C34.9086 176.381 33.7923 177.5 32.4151 177.5C31.038 177.5 29.9217 176.381 29.9217 175C29.9217 173.619 31.038 172.5 32.4151 172.5C33.7923 172.5 34.9086 173.619 34.9086 175Z" fill="black"/>
<path d="M19.9478 175C19.9478 176.381 18.8314 177.5 17.4543 177.5C16.0772 177.5 14.9608 176.381 14.9608 175C14.9608 173.619 16.0772 172.5 17.4543 172.5C18.8314 172.5 19.9478 173.619 19.9478 175Z" fill="black"/>
<path d="M4.98695 175C4.98695 176.381 3.87058 177.5 2.49347 177.5C1.11637 177.5 0 176.381 0 175C0 173.619 1.11637 172.5 2.49347 172.5C3.87058 172.5 4.98695 173.619 4.98695 175Z" fill="black"/>
<path d="M109.214 188.5C109.214 189.881 108.098 191 106.721 191C105.344 191 104.227 189.881 104.227 188.5C104.227 187.119 105.344 186 106.721 186C108.098 186 109.214 187.119 109.214 188.5Z" fill="black"/>
<path d="M50.3681 188.5C50.3681 189.881 49.2518 191 47.8747 191C46.4976 191 45.3812 189.881 45.3812 188.5C45.3812 187.119 46.4976 186 47.8747 186C49.2518 186 50.3681 187.119 50.3681 188.5Z" fill="black"/>
<path d="M65.329 188.5C65.329 189.881 64.2126 191 62.8355 191C61.4584 191 60.342 189.881 60.342 188.5C60.342 187.119 61.4584 186 62.8355 186C64.2126 186 65.329 187.119 65.329 188.5Z" fill="black"/>
<path d="M80.2898 188.5C80.2898 189.881 79.1735 191 77.7963 191C76.4192 191 75.3029 189.881 75.3029 188.5C75.3029 187.119 76.4192 186 77.7963 186C79.1735 186 80.2898 187.119 80.2898 188.5Z" fill="black"/>
<path d="M95.2507 188.5C95.2507 189.881 94.1343 191 92.7572 191C91.3801 191 90.2637 189.881 90.2637 188.5C90.2637 187.119 91.3801 186 92.7572 186C94.1343 186 95.2507 187.119 95.2507 188.5Z" fill="black"/>
<path d="M123.178 188.5C123.178 189.881 122.061 191 120.684 191C119.307 191 118.191 189.881 118.191 188.5C118.191 187.119 119.307 186 120.684 186C122.061 186 123.178 187.119 123.178 188.5Z" fill="black"/>
<path d="M138.138 188.5C138.138 189.881 137.022 191 135.645 191C134.268 191 133.151 189.881 133.151 188.5C133.151 187.119 134.268 186 135.645 186C137.022 186 138.138 187.119 138.138 188.5Z" fill="black"/>
<path d="M153.099 188.5C153.099 189.881 151.983 191 150.606 191C149.229 191 148.112 189.881 148.112 188.5C148.112 187.119 149.229 186 150.606 186C151.983 186 153.099 187.119 153.099 188.5Z" fill="black"/>
<path d="M167.063 188.5C167.063 189.881 165.946 191 164.569 191C163.192 191 162.076 189.881 162.076 188.5C162.076 187.119 163.192 186 164.569 186C165.946 186 167.063 187.119 167.063 188.5Z" fill="black"/>
<path d="M34.9086 188.5C34.9086 189.881 33.7923 191 32.4151 191C31.038 191 29.9217 189.881 29.9217 188.5C29.9217 187.119 31.038 186 32.4151 186C33.7923 186 34.9086 187.119 34.9086 188.5Z" fill="black"/>
<path d="M19.9478 188.5C19.9478 189.881 18.8314 191 17.4543 191C16.0772 191 14.9608 189.881 14.9608 188.5C14.9608 187.119 16.0772 186 17.4543 186C18.8314 186 19.9478 187.119 19.9478 188.5Z" fill="black"/>
<path d="M4.98695 188.5C4.98695 189.881 3.87058 191 2.49347 191C1.11637 191 0 189.881 0 188.5C0 187.119 1.11637 186 2.49347 186C3.87058 186 4.98695 187.119 4.98695 188.5Z" fill="black"/>
<path d="M180.029 58C180.029 59.3807 178.912 60.5 177.535 60.5C176.158 60.5 175.042 59.3807 175.042 58C175.042 56.6193 176.158 55.5 177.535 55.5C178.912 55.5 180.029 56.6193 180.029 58Z" fill="black"/>
<path d="M180.029 73C180.029 74.3807 178.912 75.5 177.535 75.5C176.158 75.5 175.042 74.3807 175.042 73C175.042 71.6193 176.158 70.5 177.535 70.5C178.912 70.5 180.029 71.6193 180.029 73Z" fill="black"/>
<path d="M180.029 88C180.029 89.3807 178.912 90.5 177.535 90.5C176.158 90.5 175.042 89.3807 175.042 88C175.042 86.6193 176.158 85.5 177.535 85.5C178.912 85.5 180.029 86.6193 180.029 88Z" fill="black"/>
<path d="M180.029 103C180.029 104.381 178.912 105.5 177.535 105.5C176.158 105.5 175.042 104.381 175.042 103C175.042 101.619 176.158 100.5 177.535 100.5C178.912 100.5 180.029 101.619 180.029 103Z" fill="black"/>
<path d="M180.029 118C180.029 119.381 178.912 120.5 177.535 120.5C176.158 120.5 175.042 119.381 175.042 118C175.042 116.619 176.158 115.5 177.535 115.5C178.912 115.5 180.029 116.619 180.029 118Z" fill="black"/>
<path d="M180.029 133C180.029 134.381 178.912 135.5 177.535 135.5C176.158 135.5 175.042 134.381 175.042 133C175.042 131.619 176.158 130.5 177.535 130.5C178.912 130.5 180.029 131.619 180.029 133Z" fill="black"/>
<path d="M180.029 44C180.029 45.3807 178.912 46.5 177.535 46.5C176.158 46.5 175.042 45.3807 175.042 44C175.042 42.6193 176.158 41.5 177.535 41.5C178.912 41.5 180.029 42.6193 180.029 44Z" fill="black"/>
<path d="M180.029 30C180.029 31.3807 178.912 32.5 177.535 32.5C176.158 32.5 175.042 31.3807 175.042 30C175.042 28.6193 176.158 27.5 177.535 27.5C178.912 27.5 180.029 28.6193 180.029 30Z" fill="black"/>
<path d="M180.029 15.5C180.029 16.8807 178.912 18 177.535 18C176.158 18 175.042 16.8807 175.042 15.5C175.042 14.1193 176.158 13 177.535 13C178.912 13 180.029 14.1193 180.029 15.5Z" fill="black"/>
<path d="M180.029 2.5C180.029 3.88071 178.912 5 177.535 5C176.158 5 175.042 3.88071 175.042 2.5C175.042 1.11929 176.158 0 177.535 0C178.912 0 180.029 1.11929 180.029 2.5Z" fill="black"/>
<path d="M180.029 146C180.029 147.381 178.912 148.5 177.535 148.5C176.158 148.5 175.042 147.381 175.042 146C175.042 144.619 176.158 143.5 177.535 143.5C178.912 143.5 180.029 144.619 180.029 146Z" fill="black"/>
<path d="M180.029 160.5C180.029 161.881 178.912 163 177.535 163C176.158 163 175.042 161.881 175.042 160.5C175.042 159.119 176.158 158 177.535 158C178.912 158 180.029 159.119 180.029 160.5Z" fill="black"/>
<path d="M180.029 175C180.029 176.381 178.912 177.5 177.535 177.5C176.158 177.5 175.042 176.381 175.042 175C175.042 173.619 176.158 172.5 177.535 172.5C178.912 172.5 180.029 173.619 180.029 175Z" fill="black"/>
<path d="M180.029 188.5C180.029 189.881 178.912 191 177.535 191C176.158 191 175.042 189.881 175.042 188.5C175.042 187.119 176.158 186 177.535 186C178.912 186 180.029 187.119 180.029 188.5Z" fill="black"/>
<path d="M191 58C191 59.3807 189.884 60.5 188.507 60.5C187.129 60.5 186.013 59.3807 186.013 58C186.013 56.6193 187.129 55.5 188.507 55.5C189.884 55.5 191 56.6193 191 58Z" fill="black"/>
<path d="M191 73C191 74.3807 189.884 75.5 188.507 75.5C187.129 75.5 186.013 74.3807 186.013 73C186.013 71.6193 187.129 70.5 188.507 70.5C189.884 70.5 191 71.6193 191 73Z" fill="black"/>
<path d="M191 88C191 89.3807 189.884 90.5 188.507 90.5C187.129 90.5 186.013 89.3807 186.013 88C186.013 86.6193 187.129 85.5 188.507 85.5C189.884 85.5 191 86.6193 191 88Z" fill="black"/>
<path d="M191 103C191 104.381 189.884 105.5 188.507 105.5C187.129 105.5 186.013 104.381 186.013 103C186.013 101.619 187.129 100.5 188.507 100.5C189.884 100.5 191 101.619 191 103Z" fill="black"/>
<path d="M191 118C191 119.381 189.884 120.5 188.507 120.5C187.129 120.5 186.013 119.381 186.013 118C186.013 116.619 187.129 115.5 188.507 115.5C189.884 115.5 191 116.619 191 118Z" fill="black"/>
<path d="M191 133C191 134.381 189.884 135.5 188.507 135.5C187.129 135.5 186.013 134.381 186.013 133C186.013 131.619 187.129 130.5 188.507 130.5C189.884 130.5 191 131.619 191 133Z" fill="black"/>
<path d="M191 44C191 45.3807 189.884 46.5 188.507 46.5C187.129 46.5 186.013 45.3807 186.013 44C186.013 42.6193 187.129 41.5 188.507 41.5C189.884 41.5 191 42.6193 191 44Z" fill="black"/>
<path d="M191 30C191 31.3807 189.884 32.5 188.507 32.5C187.129 32.5 186.013 31.3807 186.013 30C186.013 28.6193 187.129 27.5 188.507 27.5C189.884 27.5 191 28.6193 191 30Z" fill="black"/>
<path d="M191 15.5C191 16.8807 189.884 18 188.507 18C187.129 18 186.013 16.8807 186.013 15.5C186.013 14.1193 187.129 13 188.507 13C189.884 13 191 14.1193 191 15.5Z" fill="black"/>
<path d="M191 2.5C191 3.88071 189.884 5 188.507 5C187.129 5 186.013 3.88071 186.013 2.5C186.013 1.11929 187.129 0 188.507 0C189.884 0 191 1.11929 191 2.5Z" fill="black"/>
<path d="M191 146C191 147.381 189.884 148.5 188.507 148.5C187.129 148.5 186.013 147.381 186.013 146C186.013 144.619 187.129 143.5 188.507 143.5C189.884 143.5 191 144.619 191 146Z" fill="black"/>
<path d="M191 160.5C191 161.881 189.884 163 188.507 163C187.129 163 186.013 161.881 186.013 160.5C186.013 159.119 187.129 158 188.507 158C189.884 158 191 159.119 191 160.5Z" fill="black"/>
<path d="M191 175C191 176.381 189.884 177.5 188.507 177.5C187.129 177.5 186.013 176.381 186.013 175C186.013 173.619 187.129 172.5 188.507 172.5C189.884 172.5 191 173.619 191 175Z" fill="black"/>
<path d="M191 188.5C191 189.881 189.884 191 188.507 191C187.129 191 186.013 189.881 186.013 188.5C186.013 187.119 187.129 186 188.507 186C189.884 186 191 187.119 191 188.5Z" fill="black"/>
</mask>
<g mask="url(#mask0_331_8)">
<circle cx="95" cy="95" r="96" fill="black"/>
</g>
</g>
</svg>
