<svg width="223" height="131" viewBox="0 0 223 131" fill="none" xmlns="http://www.w3.org/2000/svg">
<path opacity="0.3" d="M46.5 2L46.9617 3.42717L46.3594 0.5066L46.5 2ZM19.5 40.5L18.1317 41.1147L18.1317 41.1147L19.5 40.5ZM158.245 89.1791C157.791 89.8725 157.986 90.8021 158.679 91.2555C159.372 91.7088 160.302 91.5142 160.755 90.8209L158.245 89.1791ZM0.914967 3.03571C3.01907 5.24002 7.76231 7.5116 15.2309 8.16922C22.7605 8.8322 33.215 7.87465 46.9617 3.42717L46.0383 0.572833C32.585 4.92535 22.5395 5.80113 15.4941 5.18078C8.38769 4.55506 4.48093 2.42665 3.08503 0.964286L0.914967 3.03571ZM46.3594 0.5066C39.1113 1.18877 28.8893 3.97652 22.0218 10.2962C18.5564 13.4851 15.9273 17.5935 15.0179 22.7685C14.1105 27.9329 14.9412 34.0133 18.1317 41.1147L20.8683 39.8853C17.8588 33.1867 17.1937 27.7212 17.9727 23.2877C18.7498 18.8649 20.9894 15.3232 24.0532 12.5038C30.244 6.80681 39.722 4.14456 46.6406 3.4934L46.3594 0.5066ZM18.1317 41.1147C26.2016 59.0766 43.1286 65.3797 58.706 65.1874C66.4959 65.0912 74.029 63.3782 80.0937 60.6406C86.1055 57.9269 90.9078 54.0959 92.8742 49.6012L90.1258 48.3988C88.5922 51.9041 84.582 55.3231 78.8594 57.9063C73.1897 60.4656 66.0666 62.0963 58.669 62.1876C43.8714 62.3703 28.2984 56.4234 20.8683 39.8853L18.1317 41.1147ZM92.8742 49.6012C94.651 45.54 95.2641 42.4685 94.7421 40.2297C94.4681 39.0549 93.8811 38.1127 93.0235 37.4399C92.1877 36.7843 91.1915 36.4594 90.2001 36.3259C88.2554 36.0641 86.0084 36.4971 84.0388 37.0864C82.0331 37.6864 80.1394 38.5032 78.8292 39.1584L80.1708 41.8416C81.3606 41.2468 83.0919 40.5011 84.8987 39.9605C86.7416 39.4091 88.4946 39.1234 89.7999 39.2991C90.4335 39.3844 90.8748 39.5673 91.1718 39.8003C91.447 40.0162 91.6881 40.3435 91.8204 40.9109C92.1109 42.1565 91.849 44.46 90.1258 48.3988L92.8742 49.6012ZM78.8292 39.1584C77.466 39.84 74.7836 41.4959 71.9067 43.7974C69.0293 46.0993 65.865 49.1199 63.6195 52.5541C61.3786 55.9815 59.9441 59.9959 60.8801 64.1718C61.8198 68.3644 65.0567 72.3154 71.2646 75.8074L72.7354 73.1926C66.9433 69.9346 64.4927 66.5731 63.8074 63.5157C63.1184 60.4416 64.1214 57.2685 66.1305 54.1959C68.135 51.1301 71.0332 48.3382 73.7808 46.1401C76.5289 43.9416 79.034 42.41 80.1708 41.8416L78.8292 39.1584ZM71.2646 75.8074C83.6639 82.7819 99.1862 83.6479 112.137 80.777C118.624 79.3389 124.541 76.948 129.157 73.8466C133.755 70.7568 137.188 66.8721 138.444 62.4061L135.556 61.5939C134.562 65.1279 131.745 68.4932 127.484 71.3565C123.24 74.2083 117.688 76.4736 111.488 77.848C99.0638 80.6021 84.3361 79.7181 72.7354 73.1926L71.2646 75.8074ZM138.444 62.4061C138.776 61.2269 138.849 60.0905 138.575 59.0467C138.295 57.9795 137.681 57.1197 136.833 56.4837C135.215 55.2704 132.83 54.9188 130.269 55.0327C125.059 55.2647 117.888 57.487 110.75 61.1668C103.59 64.8582 96.3068 70.0966 90.922 76.5037C85.5346 82.9138 81.9716 90.5924 82.5029 99.0936L85.4971 98.9064C85.0284 91.4076 88.1529 84.4612 93.2186 78.4338C98.2869 72.4034 105.222 67.3918 112.125 63.8332C119.05 60.263 125.785 58.2353 130.403 58.0298C132.756 57.925 134.265 58.3077 135.032 58.8835C135.377 59.142 135.577 59.4404 135.673 59.8078C135.776 60.1986 135.787 60.7731 135.556 61.5939L138.444 62.4061ZM82.5029 99.0936C83.0385 107.663 87.7768 114.419 95.0179 119.393C102.229 124.346 111.986 127.588 122.838 129.233C144.538 132.523 171.079 129.495 191.609 120.371L190.391 117.629C170.421 126.505 144.462 129.477 123.287 126.267C112.702 124.662 103.427 121.529 96.7165 116.92C90.0357 112.331 85.9615 106.337 85.4971 98.9064L82.5029 99.0936ZM191.609 120.371C212.129 111.251 221.53 98.5235 222.802 87.6747C223.439 82.2483 222.022 77.3147 218.925 73.7236C215.822 70.1255 211.14 68 205.5 68V71C210.36 71 214.178 72.812 216.653 75.6827C219.134 78.5603 220.374 82.6267 219.823 87.3253C218.72 96.7265 210.371 108.749 190.391 117.629L191.609 120.371ZM205.5 68C184.175 68 167.108 75.6232 158.245 89.1791L160.755 90.8209C168.892 78.3768 184.825 71 205.5 71V68Z" fill="black"/>
</svg>
